<svg id="shopping-cart-empty-tool_icon-icons.com_56128" xmlns="http://www.w3.org/2000/svg" width="50.248" height="50.248" viewBox="0 0 50.248 50.248">
  <g id="Grupo_61" data-name="Grupo 61">
    <path id="Trazado_14" data-name="Trazado 14" d="M48.678,0H40.827a1.574,1.574,0,0,0-1.545,1.288L34.948,25.125H13.464L2.928,7.061A1.571,1.571,0,0,0,.214,8.644L11.205,27.487a1.567,1.567,0,0,0,1.357.779H34.377l-1.141,6.281H15.7a1.57,1.57,0,1,0,0,3.14H34.546A1.573,1.573,0,0,0,36.091,36.4L42.137,3.142h6.542a1.57,1.57,0,1,0,0-3.141Z" transform="translate(-0.001 -0.001)" fill="#302733"/>
    <path id="Trazado_15" data-name="Trazado 15" d="M156.339,394.238a4.711,4.711,0,1,0,4.711,4.711A4.71,4.71,0,0,0,156.339,394.238Z" transform="translate(-135.926 -353.411)" fill="#302733"/>
    <path id="Trazado_16" data-name="Trazado 16" d="M277.638,394.238a4.711,4.711,0,1,0,4.711,4.711A4.708,4.708,0,0,0,277.638,394.238Z" transform="translate(-244.663 -353.411)" fill="#302733"/>
  </g>
</svg>
