<svg xmlns="http://www.w3.org/2000/svg" xmlns:xlink="http://www.w3.org/1999/xlink" width="24" height="24" viewBox="0 0 24 24">
  <defs>
    <clipPath id="clip-path">
      <rect id="Rectángulo_9" data-name="Rectángulo 9" width="24" height="24" fill="#fff"/>
    </clipPath>
  </defs>
  <g id="Property_1_shopping-cart" data-name="Property 1=shopping-cart" clip-path="url(#clip-path)">
    <path id="Trazado_4" data-name="Trazado 4" d="M1,0A1,1,0,0,0,1,2H4.18l.832,4.155q.007.043.017.084L6.7,14.585h0A3,3,0,0,0,9.689,17h9.7a3,3,0,0,0,2.989-2.415h0v-.007l1.6-8.39A1,1,0,0,0,23,5H6.82L5.981.8A1,1,0,0,0,5,0ZM8.661,14.194,7.221,7H21.791l-1.373,7.2a1,1,0,0,1-1,.8H9.661a1,1,0,0,1-1-.805ZM7,21a2,2,0,1,1,2,2A2,2,0,0,1,7,21Zm11,0a2,2,0,1,1,2,2A2,2,0,0,1,18,21Z" fill="#fff" fill-rule="evenodd"/>
  </g>
</svg>
