<svg xmlns="http://www.w3.org/2000/svg" width="20" height="24" viewBox="0 0 20 24">
  <path id="Property_1_map-pin" data-name="Property 1=map-pin" d="M6.343,4.343A8,8,0,0,1,20,10c0,3.1-2.016,6.1-4.226,8.437a29.412,29.412,0,0,1-2.991,2.733c-.3.243-.57.444-.783.6-.213-.157-.479-.359-.783-.6a29.418,29.418,0,0,1-2.991-2.733C6.016,16.1,4,13.1,4,10A8,8,0,0,1,6.343,4.343Zm5.1,19.489s0,0,.555-.832l-.555.832a1,1,0,0,0,1.109,0L12,23c.555.832.555.832.555.832h0l.007,0,.023-.016.083-.057c.071-.049.173-.121.3-.214.257-.186.621-.457,1.057-.8a31.433,31.433,0,0,0,3.2-2.923C19.516,17.4,22,13.9,22,10A10,10,0,1,0,2,10c0,3.9,2.484,7.4,4.774,9.813a31.427,31.427,0,0,0,3.2,2.923c.436.347.8.618,1.057.8.129.093.231.165.3.214l.083.057.023.016.007,0h0ZM10,10a2,2,0,1,1,2,2A2,2,0,0,1,10,10Zm2-4a4,4,0,1,0,4,4A4,4,0,0,0,12,6Z" transform="translate(-2)" fill="#ff1f18" fill-rule="evenodd"/>
</svg>
